<svg baseProfile="tiny-ps" height="140" viewBox="0 0 395 140" width="395" xmlns="http://www.w3.org/2000/svg">
  <title>Cardinal_Health_logo-svg</title>
  <style>
    tspan {
      white-space: pre
    }

    .shp0 {
      fill: #f04e44
    }

    .shp1 {
      fill: #000000
    }
  </style>
  <g id="Layer">
    <path class="shp0"
          d="M116.1 62.6C117.8 65.8 118.9 69.1 119.5 72.3L118.4 73C116.9 69.9 115.1 67.1 113.1 64.4C100.6 72.9 90 82.6 83.5 93.6L82.3 92.8C84.6 82.4 94.9 71.1 110.4 60.9C109.1 59.3 107.8 57.8 106.4 56.3C98.8 61.3 92.4 66.6 87.8 71.9L86.7 71C89.4 65.1 95.3 59 103.6 53.3C102.4 52.1 101.2 51 99.9 49.9C96.6 52.3 93.6 54.8 91 57.3L90 56.2C91.8 53.3 94.3 50.4 97.5 47.7C73.5 27.4 38 15.4 4 10L4.3 9.8C45.5 15.1 76.2 26.7 95.7 40.5C97 39 98.6 37.6 100.3 36.3C82.8 22.6 56.8 11.3 25.7 5.7L26 5.5C61.2 10.7 87.9 21.9 103 34.3C104.7 33.3 106.4 32.3 108.3 31.3C95.5 19.3 74.6 9.6 46.1 3.1L46.4 2.9C77.9 9 99.6 17.7 110.3 30.3C123.3 24.1 140.2 20.3 153 18L153.3 18.3C140.9 20.7 124.8 25.9 111.9 32.5C112.5 33.3 113 34.1 113.5 34.9L112.6 35.7C111.8 34.8 111.1 34 110.3 33.2C108.6 34.1 106.8 35.1 105.2 36.1C106.5 37.3 107.8 38.5 108.9 39.8C124.6 30.8 147.3 23.8 172.5 20L172.8 20.2C151.2 24.2 128.6 32.3 111.1 42.4C112.2 43.8 113.2 45.3 114 46.7C134.1 35.9 162.3 27.1 191.1 24.2L191.5 24.4C164.6 27.9 133 39.6 110.3 53.6C111.6 55.2 112.8 56.8 113.9 58.4C139.2 42.8 176.8 30.3 216.8 28.7L217.1 28.9C190.9 30.5 147.8 42.3 116.1 62.6ZM106.2 41.5C105 40.3 103.7 39.2 102.3 38C100.5 39.2 98.8 40.5 97.3 41.7C98.6 42.7 100 43.7 101.2 44.8C102.8 43.6 104.5 42.5 106.2 41.5ZM107.5 50.5C109.1 49.6 110.7 48.6 112.3 47.7C111.2 46.3 110.1 45.1 108.8 43.8C107.1 44.9 105.5 45.9 103.9 47C105.2 48.2 106.4 49.4 107.5 50.5Z"
          fill-rule="evenodd" id="Layer"/>
    <path class="shp1"
          d="M193.8 91.3L200.3 91.3L200.3 97.4L193.8 97.4L193.8 91.3ZM193.9 102.4L200.2 102.4L200.2 128.5L193.9 128.5L193.9 102.4ZM258.7 90.5L265 90.5L265 128.5L258.7 128.5L258.7 90.5ZM289 90.5L292.2 90.5L292.2 128.6L289 128.6L289 109.6L275.1 109.6L275.1 128.6L271.9 128.6L271.9 90.5L275.1 90.5L275.1 106.8L289 106.8L289 90.5ZM316.4 116.5L301.3 116.5C301.3 126.2 307.6 126.3 308.8 126.3C310.5 126.3 313 125.5 314.5 124.1L314.7 127.4C313.4 128.1 311.7 128.9 308.6 128.9C298.3 128.9 298 118.1 298 115.5C298 106.6 301.4 102.1 307.2 102.1C313.6 102.1 316.4 107.2 316.4 116.5ZM301.3 113.7L313 113.7C313 108.1 310.7 104.8 307.2 104.8C303.2 104.8 301.3 108.6 301.3 113.7ZM345 90.5L348.1 90.5L348.1 128.5L345 128.5L345 90.5ZM359.3 96.3L359.3 102.4L364.7 102.4L364.7 105L359.3 105L359.3 122.1C359.3 124.2 359.5 126.2 362.3 126.2C363.5 126.2 364.1 125.9 364.6 125.8L364.6 128.5C364.3 128.7 363.5 128.9 361.6 128.9C357 128.9 356.1 125.9 356.1 123L356.1 105L352.2 105L352.2 102.4L356.1 102.4L356.1 97.2L359.2 96.3L359.3 96.3ZM143.7 124C143.7 125.9 143.9 127.6 144 128.6L138.3 128.6C138 127.6 137.9 126.3 137.9 125.6L137.8 125.6C137 126.5 134.7 129 130.5 129C125.9 129 122.6 126.2 122.6 121.3C122.6 114.2 128.9 112.4 135.2 112.4L137.6 112.4L137.6 111.4C137.6 108.8 136.3 106.4 132.7 106.4C129.5 106.4 126.7 107.9 125.5 108.9L125.1 103.8C126.9 103 129.3 101.9 133 101.9C140.8 101.9 143.4 105.8 143.4 111.8L143.4 124L143.7 124ZM135.5 115.8C132.5 115.8 128.6 116.7 128.6 120.7C128.6 123.1 130.2 124.7 132.6 124.7C136 124.7 137.7 121.9 137.7 118.6L137.7 115.8L135.5 115.8ZM252.4 124C252.4 125.9 252.6 127.6 252.8 128.6L247.1 128.6C246.8 127.6 246.7 126.3 246.7 125.6L246.6 125.6C245.8 126.5 243.5 129 239.3 129C234.7 129 231.4 126.2 231.4 121.3C231.4 114.2 237.7 112.4 244 112.4L246.4 112.4L246.4 111.4C246.4 108.8 245.1 106.4 241.5 106.4C238.4 106.4 235.6 107.9 234.3 108.9L233.9 103.8C235.7 103 238.1 101.9 241.8 101.9C249.7 101.9 252.2 105.8 252.2 111.8L252.2 124L252.4 124ZM244.3 115.8C241.3 115.8 237.5 116.7 237.5 120.7C237.5 123.1 239.1 124.7 241.5 124.7C244.9 124.7 246.6 121.9 246.6 118.6L246.6 115.8L244.3 115.8ZM162.3 102.1C162.7 102.1 163 102.1 163.4 102.2L163.4 108C163.1 107.9 162.5 107.8 161.6 107.8C159.1 107.8 156.2 109.4 156.2 114.3L156.2 128.6L149.9 128.6L149.9 106.8C149.9 105.1 149.9 103.6 149.7 102.4L155.4 102.4C155.5 104 155.6 104.4 155.7 106C156.2 104.9 157.4 102 162.3 102.1ZM187.5 124.1C187.5 126 187.6 127.6 187.7 128.6L181.8 128.6C181.7 127.9 181.6 126.5 181.6 125.2L181.5 125.2C181.1 125.9 179.5 129 174.5 129C168 129 165.3 122.8 165.3 115.5C165.3 107 168.5 102 175 102C179.2 102 180.7 104.5 181.1 105.1L181.2 105.1L181.2 90.5L187.5 90.5L187.5 124.1ZM181.2 115.4C181.2 110.3 179.8 106.6 176.3 106.6C172.8 106.6 171.5 110 171.5 115.2C171.5 121.3 172.5 124.3 176.1 124.3C180 124.4 181.2 120.3 181.2 115.4ZM102.2 110.7C102.2 119.9 106.8 123.6 112.2 123.6C115.3 123.6 117.4 122.9 118.9 121.8L119.3 127.7C118.6 128 116.6 129 111.6 129C100.8 129 95.3 121.2 95.3 110.8C95.3 100.5 100.8 92.6 111.4 92.6C116 92.6 118.5 93.6 119.3 93.9L119 99.8C118.4 99.5 116.5 98 112.3 98C106.9 98 102.3 101.7 102.2 110.7ZM227.2 110.7L227.2 128.6L220.9 128.6L220.9 111.7C220.9 108.5 219 107.3 216.9 107.3C214.9 107.3 212.9 108.4 212.9 111.7L212.9 128.6L206.6 128.6L206.6 106.8C206.6 105.1 206.6 103.6 206.4 102.4L212.3 102.4C212.4 103.2 212.5 105 212.5 105.7L212.6 105.7C213.2 104.9 214.8 102 219.5 102C224.9 102 227.4 105.5 227.2 110.7ZM386 109.7L386 128.5L382.9 128.5L382.9 110.4C382.9 106.9 380.8 104.6 377.5 104.6C374.2 104.6 372 106.8 372 110.4L372 128.5L368.9 128.5L368.9 90.5L372 90.5L372 104.8L372.1 104.8C372.8 103.9 374.4 102.1 378.4 102.1C383.3 102.1 386 106.1 386 109.7ZM338.1 122.7C338.1 124.7 338.2 126.6 338.4 128.5L335.4 128.5L335.2 125.3L335.1 125.3C334.4 126.2 333 128.8 328 128.8C323.1 128.8 320.3 125.7 320.3 121.1C320.3 114.4 326 112.7 332.7 112.7L334.9 112.7L334.9 110.6C334.9 107 333.6 104.7 329.2 104.7C325.7 104.7 323.2 107.2 322.9 107.4L322.4 104.2C323.9 103.3 326.1 101.9 329.5 101.9C336.8 101.9 338.1 107.2 338.1 110L338.1 122.7ZM332.5 115.4C327 115.4 323.6 117 323.6 121.1C323.6 123.7 325.2 126.1 328.7 126.1C330.1 126.1 335 125.5 335 118.4L335 115.4L332.5 115.4Z"
          fill-rule="evenodd" id="Layer"/>
  </g>
</svg>
