<svg xmlns="http://www.w3.org/2000/svg" viewBox="0 0 1080 1080" width="1080" height="1080">
	<style>
		tspan { white-space:pre }
		.shp0 { fill: #fff }
	</style>
	<path id="Path 0" fill-rule="evenodd" class="shp0" d="M536.5 1.15C544.2 1.07 559.05 1.47 569.5 2.04C579.95 2.61 594.13 3.75 601 4.56C607.88 5.38 621.83 7.43 632 9.11C642.17 10.79 659.95 14.56 671.5 17.49C683.05 20.41 697.67 24.49 704 26.53C710.33 28.58 722.02 32.71 730 35.71C737.98 38.71 748.77 42.97 754 45.19C759.23 47.41 771.38 53.16 781 57.98C790.63 62.79 804.13 70 811 74C817.88 78 829.58 85.31 837 90.24C844.42 95.18 856.35 103.62 863.5 109C870.65 114.39 880.99 122.55 886.48 127.14C891.97 131.74 902.54 141.17 909.98 148.1C917.41 155.03 928.98 166.73 935.67 174.1C942.36 181.47 950.84 191.1 954.52 195.5C958.19 199.9 965.61 209.35 970.99 216.5C976.37 223.65 984.82 235.57 989.76 243C994.69 250.43 1002 262.13 1006 269C1009.99 275.88 1016.99 288.93 1021.54 298C1026.1 307.07 1031.66 318.66 1038 333L974.87 333.5L938.95 400.5C919.19 437.35 891.43 489.16 877.26 515.64C863.09 542.12 851.42 563.72 851.33 563.64C851.24 563.56 846.84 513.1 841.56 451.5C836.27 389.9 831.73 338.04 831 333L664.5 332.99L651.28 395.25C644.01 429.49 624.52 521.17 607.96 599C591.41 676.83 577.56 741.75 576.5 746.08L636.39 745.5L666.02 607.5C682.32 531.6 696.1 467.48 697.66 460.5L698.32 464C698.69 465.93 705.06 528.25 712.47 602.5C719.89 676.75 726.2 739.41 727 746L816.5 745.98L859.42 667.74C883.02 624.71 917 562.85 934.92 530.27C952.84 497.7 967.6 471.15 967.71 471.27C967.83 471.4 954.9 532.7 938.97 607.5C923.04 682.3 910.01 744.06 910 744.75C910 745.74 923.46 746 974 746C1009.2 746 1038.01 746.11 1038.02 746.25C1038.02 746.39 1036.18 750.77 1033.93 756C1031.67 761.23 1026.1 772.92 1021.54 782C1016.99 791.08 1009.99 804.13 1006 811C1002 817.88 994.69 829.58 989.76 837C984.82 844.42 976.37 856.35 970.99 863.5C965.61 870.65 958.19 880.1 954.52 884.5C950.84 888.9 942.36 898.54 935.67 905.91C928.98 913.29 917.2 925.17 909.5 932.31C901.8 939.44 891.23 948.87 886 953.25C880.77 957.63 870.65 965.61 863.5 971C856.35 976.38 844.42 984.82 837 989.76C829.58 994.69 817.88 1002.01 811 1006.01C804.13 1010 790.63 1017.22 781 1022.04C771.38 1026.85 759.23 1032.61 754 1034.82C748.77 1037.03 737.98 1041.29 730 1044.29C722.02 1047.29 710.33 1051.42 704 1053.47C697.67 1055.51 683.05 1059.59 671.5 1062.51C659.95 1065.44 642.17 1069.21 632 1070.89C621.83 1072.57 608.1 1074.61 601.5 1075.42C594.9 1076.23 578.25 1077.45 564.5 1078.12C544.77 1079.09 534.34 1079.09 515 1078.12C501.52 1077.45 485.1 1076.23 478.5 1075.42C471.9 1074.61 458.18 1072.57 448 1070.89C437.82 1069.21 420.05 1065.44 408.5 1062.51C396.95 1059.59 382.32 1055.51 376 1053.47C369.68 1051.42 357.98 1047.29 350 1044.29C342.02 1041.29 331.23 1037.03 326 1034.82C320.77 1032.61 308.63 1026.85 299 1022.04C289.38 1017.22 275.88 1010 269 1006.01C262.13 1002.01 250.43 994.69 243 989.76C235.57 984.82 223.65 976.38 216.5 971C209.35 965.61 199.01 957.45 193.52 952.86C188.03 948.26 177.46 938.83 170.02 931.89C162.59 924.96 150.79 913.04 143.82 905.39C136.85 897.75 127.67 887.23 123.43 882C119.18 876.77 112.47 868.23 108.5 863C104.54 857.77 96.78 846.75 91.27 838.5C85.77 830.25 77.99 817.88 73.99 811C70 804.13 63 791.08 58.44 782C53.88 772.92 48.31 761.23 46.06 756C43.81 750.77 41.98 746.39 41.98 746.25C41.99 746.11 80.03 746 126.5 746C206.14 746 211.03 745.9 211.45 744.25C211.7 743.29 213.73 733.05 215.95 721.5C218.17 709.95 220.21 699.49 221 696L88.5 695.97L102.22 631.73C109.77 596.41 116.41 565.14 118 557L229.47 556.5L239.63 508.5L184.32 508.25C153.89 508.11 128.99 507.66 128.99 507.25C128.98 506.84 134.85 479.5 142.03 446.5C149.21 413.5 155.29 385.71 155.54 384.75C155.97 383.11 160 383 288.5 383L293.32 359.75C295.97 346.96 298.33 335.71 298.57 334.75C298.98 333.09 292.38 333 42 333L46.08 323.75C48.32 318.66 53.88 307.07 58.44 298C63 288.93 70 275.88 74 269C78 262.13 85.31 250.43 90.24 243C95.18 235.57 103.63 223.65 109.01 216.5C114.39 209.35 121.81 199.9 125.48 195.5C129.16 191.1 137.64 181.46 144.33 174.09C151.02 166.71 162.8 154.83 170.5 147.69C178.2 140.56 188.78 131.13 194 126.75C199.22 122.37 209.35 114.39 216.5 109C223.65 103.62 235.57 95.18 243 90.24C250.43 85.31 262.13 78 269 74C275.88 70 289.38 62.79 299 57.98C308.63 53.16 320.77 47.41 326 45.19C331.23 42.97 342.02 38.71 350 35.71C357.98 32.71 369.68 28.58 376 26.53C382.32 24.49 396.95 20.41 408.5 17.49C420.05 14.56 437.82 10.79 448 9.11C458.18 7.42 472.35 5.35 479.5 4.5C486.65 3.65 499.25 2.58 507.5 2.12C515.75 1.67 528.8 1.23 536.5 1.15ZM307.49 538.75C283.55 651.36 263.98 744.06 263.99 744.75C264 745.74 292.02 746 400.75 746L537.5 746C545.68 705.31 548.04 692.94 548.03 692.25C548.01 691.26 534.22 691 482.5 691C446.48 691 417 690.66 417.01 690.25C417.01 689.84 433.88 610.75 454.48 514.5C475.09 418.25 492.3 338.03 492.72 336.23L493.5 332.95C383.06 332.99 351 333.23 351 333.5C351 333.77 331.42 426.14 307.49 538.75Z" />
</svg>
